<svg width="512" height="512" viewBox="0 0 512 512" fill="none" xmlns="http://www.w3.org/2000/svg">
<g clip-path="url(#clip0_79_501)">
<rect width="512" height="512" fill="url(#paint0_radial_79_501)"/>
<g filter="url(#filter0_d_79_501)">
<path d="M355.111 226.376C365.208 254.175 372.521 283.288 373.122 312.865C373.722 342.443 367.309 372.595 351.672 397.686C333.307 427.099 302.333 448.277 268.331 454.652C234.329 461.027 193.013 456.267 167.115 433.256C132.431 402.419 107.952 360.201 98.4283 314.726C88.9043 269.251 92.3701 219.153 112.046 177.071C127.109 144.839 157.264 120.077 191.757 111.622C226.251 103.168 264.374 111.157 292.591 132.773C321.927 155.264 342.476 191.6 355.111 226.376Z" fill="#FE4642"/>
<path d="M330.851 373.033C331.506 371.556 331.37 369.777 330.497 368.409C329.623 367.041 328.013 366.248 326.43 366.248C329.842 356.945 333.307 347.505 334.071 337.628C334.836 327.75 332.598 317.189 325.857 309.938C317.998 301.456 304.381 298.993 294.065 304.192C287.134 307.694 281.458 315 277.392 321.621L291.391 390.161C291.746 395.004 295.212 399.3 299.632 401.27C304.053 403.24 309.266 403.021 313.768 401.27C318.271 399.519 322.119 396.318 325.202 392.597C328.286 388.876 329.896 384.06 332.843 380.202C333.498 379.354 334.017 378.369 334.181 377.302C334.344 376.235 334.153 375.085 333.471 374.265C332.816 373.416 331.916 372.787 330.879 373.061L330.851 373.033Z" fill="#FFC1C6"/>
<path d="M326.348 366.083C326.348 364.414 325.284 362.8 323.756 362.171C322.227 361.541 320.317 361.897 319.171 363.101C318.898 360.939 317.861 358.887 315.896 357.957C313.959 356.999 311.203 357.683 310.357 359.681" stroke="#2E1112" stroke-linecap="round" stroke-linejoin="round"/>
<path d="M310.302 377.986C311.967 379.244 313.604 380.503 315.269 381.761" stroke="#2E1112" stroke-linecap="round" stroke-linejoin="round"/>
<path d="M296.03 128.258C243.334 85.4924 171.427 92.7158 125.035 145.441C87.0488 188.645 83.6104 270.209 90.5692 314.507C98.8378 367.123 128.146 413.884 168.998 439.549C192.385 454.242 219.347 461.657 245.763 461.657C270.378 461.657 294.502 455.227 314.75 442.313C349.953 419.876 373.777 378.396 378.416 331.389C382.318 292.153 373.722 249.825 352.901 205.582C336.964 171.681 318.352 146.399 296.003 128.258H296.03ZM364.853 330.049C360.596 372.897 339.147 410.546 307.437 430.766C269.805 454.762 217.082 453.64 176.257 427.975C138.707 404.362 111.718 361.159 104.05 312.373C96.1362 262.028 104.405 189.575 135.269 154.498C158.956 127.574 189.165 113.784 219.538 113.784C243.061 113.784 266.667 122.047 287.434 138.902C300.396 149.436 310.384 161.913 314.941 178.275C319.089 193.214 318.352 208.974 318.516 224.488C318.625 235.214 319.253 246.104 322.255 256.474C323.647 261.317 326.485 265.859 327.303 270.702C328.286 276.366 328.258 282.604 327.003 288.24C324.956 297.379 318.844 305.56 310.657 310.13C302.47 314.672 292.319 315.547 283.477 312.455L280.775 320.199C285.114 321.731 289.726 322.47 294.338 322.47C301.379 322.47 308.446 320.718 314.587 317.298C324.765 311.634 332.379 301.429 334.944 290.046C336.936 281.181 335.927 272.07 334.317 263.259C333.007 256.091 335.927 248.539 344.223 247.417C359.368 245.365 360.623 267.774 362.452 277.898C365.536 295.081 366.545 312.674 364.826 330.076L364.853 330.049Z" fill="#FE818B"/>
<path d="M288.689 280.688C295.812 284.82 300.751 292.563 301.488 300.772C302.225 308.98 298.786 317.49 292.537 322.852C304.408 333.523 310.357 350.597 307.628 366.357C304.899 382.117 293.628 396.099 278.865 402.118C281.294 402.775 283.286 404.937 283.586 407.454C283.886 409.971 282.112 412.653 279.602 413.063C280.611 413.774 280.802 414.787 280.666 415.991C280.393 418.672 277.801 420.861 275.126 420.724C276.382 422.065 276.354 423.816 275.072 425.129C273.816 426.443 271.497 426.525 270.132 425.321C265.166 426.607 259.599 427.647 254.632 428.96C248.028 430.684 240.387 427.181 235.639 422.256C230.89 417.331 228.598 410.19 229.417 403.377C230.236 396.591 234.111 390.244 239.705 386.331C228.052 388.547 215.581 389.97 203.71 389.587C191.84 389.204 179.75 386.002 170.581 378.451C160.457 370.078 154.999 357.382 151.206 344.796C144.111 321.047 141.791 295.874 144.493 271.221C145.502 262.001 146.43 252.889 153.225 246.596C160.02 240.303 169.872 237.485 178.959 239.318C198.907 243.285 216.4 250.208 233.892 260.578C249.365 251.631 267.021 247.198 284.841 246.405C292.591 246.049 300.096 249.004 307.437 251.549C308.637 251.959 308.719 253.874 307.846 254.777C307.218 255.461 306.209 255.625 305.281 255.735C303.644 255.954 302.006 256.145 300.369 256.364C303.589 257.103 306.427 257.623 309.647 258.361C310.439 258.553 311.148 259.128 311.421 259.894C311.694 260.66 311.476 261.563 310.875 262.137C310.248 262.739 309.32 262.903 308.474 263.013C306.645 263.287 304.844 263.56 303.016 263.834C305.063 264.381 307 264.928 309.047 265.448C309.92 265.667 309.893 267.145 309.511 267.965C309.129 268.786 308.31 269.361 307.464 269.662C306.618 269.99 305.69 270.1 304.79 270.264C303.889 270.428 302.989 270.674 302.252 271.194C303.098 270.838 304.107 271.468 304.298 272.371C304.49 273.273 304.026 274.204 303.343 274.833C302.661 275.462 301.788 275.818 300.942 276.146C296.93 277.788 292.619 279.047 288.634 280.661L288.689 280.688Z" fill="#FFC1C6"/>
<path d="M165.178 243.45C176.176 243.45 197.68 265.147 209.36 276.092C217.192 270.401 225.815 265.366 234.52 261.152" stroke="#2E1112" stroke-linecap="round" stroke-linejoin="round"/>
<path d="M304.189 256.419C300.969 256.173 297.776 255.899 294.556 255.653" stroke="#2E1112" stroke-linecap="round" stroke-linejoin="round"/>
<path d="M305.799 263.916C302.17 263.587 298.513 263.259 294.884 262.931" stroke="#2E1112" stroke-linecap="round" stroke-linejoin="round"/>
<path d="M304.189 271.139H293.929" stroke="#2E1112" stroke-linecap="round" stroke-linejoin="round"/>
<path d="M288.689 281.263C281.157 285.148 273.625 289.034 266.093 292.919C255.478 298.391 248.274 310.977 238.668 318.064C229.035 325.151 217.409 330.076 205.484 329.638C193.668 329.173 182.534 323.427 173.61 315.656C164.687 307.886 157.701 298.145 151.042 288.35" stroke="#2E1112" stroke-linecap="round" stroke-linejoin="round"/>
<path d="M175.766 338.065C182.588 333.852 190.093 330.76 197.898 328.954" stroke="#2E1112" stroke-linecap="round" stroke-linejoin="round"/>
<path d="M230.672 323.345C243.662 320.527 256.897 318.967 270.187 318.694C278.919 318.502 288.307 319.077 295.293 324.33C300.723 328.407 303.998 334.837 305.827 341.403C310.984 359.79 305.608 380.749 292.291 394.403" stroke="#2E1112" stroke-linecap="round" stroke-linejoin="round"/>
<path d="M237.713 387.288C248.956 381.898 259.626 375.332 269.532 367.698" stroke="#2E1112" stroke-linecap="round" stroke-linejoin="round"/>
<path d="M279.929 401.872C273.57 404.143 267.239 406.414 260.881 408.685" stroke="#2E1112" stroke-linecap="round" stroke-linejoin="round"/>
<path d="M302.088 301.374C302.388 308.953 298.868 316.587 292.891 321.265" stroke="#2E1112" stroke-linecap="round" stroke-linejoin="round"/>
<path d="M247.319 310.375C246.718 311.278 246.828 312.592 247.564 313.385C248.301 314.179 249.584 314.425 250.539 313.905C249.529 314.835 249.229 316.422 249.802 317.654C250.375 318.885 251.822 319.651 253.159 319.459" stroke="#2E1112" stroke-linecap="round" stroke-linejoin="round"/>
<path d="M250.157 313.467C254.742 310.977 259.354 308.488 263.938 305.998" stroke="#2E1112" stroke-linecap="round" stroke-linejoin="round"/>
<path d="M257.907 317.982C261.345 316.368 264.756 314.781 268.195 313.166" stroke="#2E1112" stroke-linecap="round" stroke-linejoin="round"/>
<path d="M283.723 204.268C283.668 209.439 282.931 214.611 281.594 219.59C277.828 233.681 270.679 245.31 257.935 252.424C244.972 259.675 221.776 265.53 204.448 260.715C187.119 255.926 171.4 243.504 162.804 227.662C156.91 229.769 149.869 228.1 145.557 223.558C141.218 219.043 139.881 211.902 142.255 206.101C144.602 200.273 150.579 196.142 156.828 195.95C160.184 173.842 174.757 153.513 195.415 145.085C216.073 136.685 241.043 139.969 258.835 153.458C273.326 164.43 282.413 181.503 283.586 199.562C283.696 201.149 283.75 202.708 283.723 204.268Z" fill="#FFC1C6"/>
<path d="M219.865 222.108C220.657 216.909 215.908 211.902 209.304 210.889C202.7 209.904 196.697 213.297 195.933 218.496C195.168 223.695 199.889 228.702 206.493 229.714C213.097 230.699 219.101 227.306 219.865 222.108Z" fill="#FE818B"/>
<path d="M283.723 204.268C283.668 209.439 282.931 214.611 281.594 219.59C277.091 220.274 272.889 218.687 271.088 215.185C268.686 210.506 271.579 204.241 277.528 201.176C279.52 200.136 281.594 199.617 283.586 199.562C283.695 201.149 283.75 202.708 283.723 204.268Z" fill="#FE818B"/>
<path d="M147.576 205.855C151.315 206.648 155.053 207.442 158.792 208.235" stroke="#2E1112" stroke-linecap="round" stroke-linejoin="round"/>
<path d="M212.88 203.529C214.872 206.32 218.256 208.071 221.667 208.126C225.105 208.181 228.516 206.539 230.618 203.803" stroke="#2E1112" stroke-linecap="round" stroke-linejoin="round"/>
<path d="M247.073 202.38C247.973 204.514 248.874 206.621 249.802 208.755" stroke="#2E1112" stroke-linecap="round" stroke-linejoin="round"/>
<path d="M259.108 198.85C261.1 200.82 264.265 201.505 266.912 200.547C269.559 199.589 271.524 197.017 271.797 194.199" stroke="#2E1112" stroke-linecap="round" stroke-linejoin="round"/>
<path d="M233.837 218.332C234.028 220.274 235.557 222.026 237.467 222.436C239.377 222.846 241.506 221.916 242.461 220.22" stroke="#2E1112" stroke-linecap="round" stroke-linejoin="round"/>
<path d="M205.184 145.961C203.11 144.511 201.336 142.513 200.518 140.133C199.699 137.725 199.89 134.907 201.418 132.882C202.919 130.857 205.812 129.818 208.159 130.775C210.506 131.733 211.843 134.797 210.669 137.041" stroke="#2E1112" stroke-linecap="round" stroke-linejoin="round"/>
<path d="M197.27 258.936C220.957 266.132 247.973 261.207 267.649 246.104" stroke="#2E1112" stroke-linecap="round" stroke-linejoin="round"/>
</g>
<g filter="url(#filter1_d_79_501)">
<path d="M399.075 75.1137L391.62 87.1572L402.722 94.0364L410.176 81.993L399.075 75.1137Z" fill="#8EBEED"/>
<path d="M399.072 75.1116L396.279 79.6253L407.38 86.5045L410.173 81.9908L399.072 75.1116Z" fill="#473D59"/>
<path d="M397.244 68.2917L394.284 73.0738C393.524 74.3017 393.903 75.9136 395.13 76.674L410.495 86.1953C411.722 86.9557 413.333 86.5768 414.093 85.3489L417.053 80.5667C417.813 79.3388 417.434 77.727 416.207 76.9666L400.842 67.4453C399.615 66.6848 398.004 67.0638 397.244 68.2917Z" fill="#D65B47"/>
<path d="M400.85 67.4479L395.138 76.6766L397.284 78.0068L402.996 68.778L400.85 67.4479Z" fill="#FF7C6E"/>
<path d="M405.259 70.1804L399.547 79.4091L401.694 80.7392L407.406 71.5105L405.259 70.1804Z" fill="#FF7C6E"/>
<path d="M409.677 72.9204L403.966 82.1492L406.112 83.4793L411.824 74.2506L409.677 72.9204Z" fill="#FF7C6E"/>
<path d="M414.09 75.6536L408.378 84.8823L410.524 86.2124L416.236 76.9837L414.09 75.6536Z" fill="#FF7C6E"/>
<path d="M325.547 75.1191L314.445 81.9983L321.899 94.0418L333.001 87.1626L325.547 75.1191Z" fill="#8EBEED"/>
<path d="M325.548 75.1163L314.447 81.9955L317.241 86.5092L328.342 79.63L325.548 75.1163Z" fill="#473D59"/>
<path d="M323.77 67.4525L308.405 76.9738C307.178 77.7343 306.799 79.3461 307.559 80.574L310.519 85.3561C311.279 86.584 312.89 86.963 314.117 86.2025L329.482 76.6813C330.709 75.9208 331.088 74.309 330.328 73.0811L327.368 68.2989C326.608 67.0711 324.997 66.6921 323.77 67.4525Z" fill="#D65B47"/>
<path d="M323.768 67.4581L321.621 68.7883L327.333 78.017L329.48 76.6869L323.768 67.4581Z" fill="#FF7C6E"/>
<path d="M319.354 70.1879L317.207 71.518L322.919 80.7467L325.066 79.4166L319.354 70.1879Z" fill="#FF7C6E"/>
<path d="M314.942 72.9267L312.795 74.2568L318.507 83.4856L320.654 82.1554L314.942 72.9267Z" fill="#FF7C6E"/>
<path d="M310.526 75.6682L308.379 76.9983L314.091 86.227L316.238 84.8969L310.526 75.6682Z" fill="#FF7C6E"/>
<path d="M372.472 61.6211H352.165V83.6571H372.472V61.6211Z" fill="#8EBEED"/>
<path d="M372.472 61.6211H352.165V69.8809H372.472V61.6211Z" fill="#473D59"/>
<path d="M362.308 218.464C402.005 218.464 434.185 186.264 434.185 146.543C434.185 106.823 402.005 74.6227 362.308 74.6227C322.612 74.6227 290.431 106.823 290.431 146.543C290.431 186.264 322.612 218.464 362.308 218.464Z" fill="#FF7C6E"/>
<path d="M362.308 213.697C399.396 213.697 429.461 183.614 429.461 146.504C429.461 109.394 399.396 79.3101 362.308 79.3101C325.221 79.3101 295.155 109.394 295.155 146.504C295.155 183.614 325.221 213.697 362.308 213.697Z" fill="#D65B47"/>
<path d="M406.654 190.78C431.146 166.273 431.146 126.541 406.654 102.034C382.162 77.5276 342.454 77.5276 317.962 102.034C293.47 126.541 293.47 166.273 317.962 190.78C342.454 215.286 382.162 215.286 406.654 190.78Z" fill="white"/>
<path d="M403.148 171.485C403.252 170.138 404.509 169.206 405.594 169.798C407.912 171.051 410.185 172.388 412.444 173.745C413.188 174.189 413.321 175.221 412.868 175.951C412.409 176.691 411.467 176.957 410.629 176.494C408.839 175.502 407.069 174.461 405.293 173.439C404.879 173.202 404.416 173.015 404.07 172.694C403.706 172.359 403.454 171.895 403.148 171.49V171.485Z" fill="#8EBEED"/>
<path d="M363.965 199.719C363.965 200.918 363.975 202.117 363.965 203.316C363.955 204.372 363.285 205.107 362.343 205.117C361.356 205.126 360.641 204.381 360.636 203.306C360.632 200.908 360.636 198.51 360.646 196.107C360.651 194.982 361.307 194.276 362.308 194.276C363.309 194.276 363.95 194.977 363.96 196.117C363.97 197.316 363.96 198.515 363.96 199.714L363.965 199.719Z" fill="#8EBEED"/>
<path d="M415.323 148.319C414.125 148.319 412.926 148.329 411.723 148.319C410.574 148.305 409.899 147.678 409.904 146.652C409.904 145.68 410.574 145.028 411.679 145.018C414.105 144.994 416.531 144.994 418.952 145.013C419.998 145.023 420.723 145.749 420.713 146.691C420.703 147.643 419.988 148.305 418.918 148.314C417.72 148.329 416.521 148.314 415.318 148.314L415.323 148.319Z" fill="#8EBEED"/>
<path d="M339.329 189.554C339.27 189.702 339.176 190.062 338.999 190.378C337.83 192.441 336.651 194.493 335.463 196.541C334.925 197.469 333.974 197.77 333.165 197.311C332.277 196.812 332.021 195.865 332.563 194.908C333.757 192.801 334.965 190.704 336.183 188.612C336.651 187.812 337.44 187.487 338.215 187.763C338.935 188.02 339.334 188.543 339.329 189.559V189.554Z" fill="#8EBEED"/>
<path d="M387.31 187.679C387.541 187.867 388.128 188.148 388.414 188.617C389.667 190.66 390.845 192.747 392.029 194.834C392.591 195.826 392.369 196.783 391.536 197.276C390.658 197.794 389.726 197.503 389.124 196.472C387.911 194.405 386.708 192.327 385.534 190.235C384.844 189.007 385.608 187.674 387.314 187.679H387.31Z" fill="#8EBEED"/>
<path d="M309.298 148.3C308.1 148.3 306.901 148.31 305.698 148.3C304.598 148.285 303.938 147.658 303.938 146.671C303.938 145.689 304.608 145.033 305.703 145.023C308.1 144.999 310.501 144.999 312.898 145.009C313.958 145.009 314.697 145.704 314.712 146.637C314.727 147.643 314.042 148.285 312.893 148.3C311.694 148.314 310.496 148.3 309.293 148.3H309.298Z" fill="#8EBEED"/>
<path d="M313.288 176.711C312.361 176.647 311.833 176.272 311.596 175.522C311.365 174.786 311.646 174.036 312.371 173.607C314.249 172.497 316.143 171.416 318.032 170.326C318.308 170.168 318.584 170.005 318.87 169.862C319.748 169.428 320.689 169.709 321.133 170.528C321.552 171.308 321.306 172.24 320.472 172.739C318.988 173.627 317.484 174.476 315.985 175.344C315.388 175.689 314.797 176.054 314.185 176.375C313.865 176.543 313.5 176.632 313.283 176.711H313.288Z" fill="#8EBEED"/>
<path d="M363.935 93.6586C363.935 94.8576 363.945 96.0566 363.935 97.2507C363.925 98.2967 363.264 99.0122 362.293 99.0418C361.43 99.0714 360.671 98.3263 360.661 97.3198C360.636 94.8724 360.636 92.4201 360.661 89.9728C360.671 88.9712 361.401 88.2656 362.308 88.2754C363.279 88.2853 363.915 88.981 363.925 90.0616C363.935 91.2606 363.925 92.4596 363.925 93.6537H363.93L363.935 93.6586Z" fill="#8EBEED"/>
<path d="M405.131 123.663C404.204 123.663 403.656 123.318 403.4 122.568C403.134 121.783 403.4 121.043 404.169 120.584C405.747 119.642 407.35 118.739 408.943 117.821C409.495 117.5 410.042 117.165 410.609 116.869C411.462 116.425 412.39 116.667 412.848 117.422C413.341 118.231 413.134 119.178 412.256 119.701C410.101 120.979 407.922 122.218 405.747 123.461C405.525 123.589 405.249 123.624 405.131 123.663Z" fill="#8EBEED"/>
<path d="M392.379 97.4826C392.246 97.8428 392.172 98.1585 392.019 98.425C390.836 100.507 389.657 102.584 388.444 104.647C387.867 105.634 386.935 105.9 386.082 105.407C385.263 104.933 385.046 103.996 385.594 103.038C386.792 100.936 387.99 98.8345 389.238 96.7622C389.923 95.6224 391.166 95.5188 391.935 96.5007C392.152 96.777 392.236 97.152 392.379 97.4776V97.4826Z" fill="#8EBEED"/>
<path d="M319.422 123.644C319.299 123.594 318.988 123.52 318.722 123.367C316.621 122.163 314.525 120.954 312.434 119.731C311.596 119.237 311.31 118.236 311.754 117.461C312.193 116.701 313.14 116.405 313.983 116.879C316.167 118.098 318.332 119.351 320.487 120.624C321.227 121.058 321.473 121.808 321.202 122.548C320.936 123.273 320.408 123.658 319.427 123.648L319.422 123.644Z" fill="#8EBEED"/>
<path d="M339.304 103.808C339.319 104.726 338.895 105.328 338.136 105.55C337.376 105.772 336.735 105.535 336.341 104.874C335.049 102.703 333.772 100.522 332.529 98.3214C332.061 97.4974 332.366 96.5155 333.116 96.0912C333.885 95.652 334.827 95.8593 335.325 96.6931C336.612 98.8346 337.85 101.006 339.092 103.172C339.221 103.394 339.255 103.67 339.3 103.803L339.304 103.808Z" fill="#8EBEED"/>
<path d="M362.308 164.701C372.265 164.701 380.337 156.624 380.337 146.662C380.337 136.699 372.265 128.622 362.308 128.622C352.352 128.622 344.28 136.699 344.28 146.662C344.28 156.624 352.352 164.701 362.308 164.701Z" fill="#8EBEED"/>
<path d="M365.906 149.864C367.812 147.956 367.812 144.863 365.906 142.955C363.999 141.048 360.908 141.048 359.002 142.955C357.095 144.863 357.095 147.956 359.002 149.864C360.908 151.771 363.999 151.771 365.906 149.864Z" fill="#7396C0"/>
<path d="M364.098 96.7671C364.098 95.8543 363.359 95.1191 362.451 95.1191C361.539 95.1191 360.804 95.8592 360.804 96.7671V146.217C360.804 147.13 361.544 147.865 362.451 147.865C363.363 147.865 364.098 147.125 364.098 146.217V96.7671Z" fill="#473D59"/>
<path d="M336.473 163.541C335.675 164 334.654 163.729 334.195 162.93C333.737 162.13 334.008 161.109 334.807 160.65L361.598 145.216C362.397 144.757 363.417 145.028 363.876 145.828C364.335 146.627 364.063 147.648 363.265 148.107L336.473 163.541Z" fill="#473D59"/>
<path d="M376.347 50.0356H348.234C345.99 50.0356 344.171 51.8559 344.171 54.1014V62.8546C344.171 65.1001 345.99 66.9204 348.234 66.9204H376.347C378.591 66.9204 380.41 65.1001 380.41 62.8546V54.1014C380.41 51.8559 378.591 50.0356 376.347 50.0356Z" fill="#D65B47"/>
<path d="M352.165 50.0356H348.235V66.9204H352.165V50.0356Z" fill="#FF7C6E"/>
<path d="M360.242 50.0356H356.312V66.9204H360.242V50.0356Z" fill="#FF7C6E"/>
<path d="M368.324 50.0356H364.394V66.9204H368.324V50.0356Z" fill="#FF7C6E"/>
<path d="M376.401 50.0356H372.471V66.9204H376.401V50.0356Z" fill="#FF7C6E"/>
</g>
</g>
<defs>
<filter id="filter0_d_79_501" x="37.6741" y="54.4568" width="391.657" height="461.2" filterUnits="userSpaceOnUse" color-interpolation-filters="sRGB">
<feFlood flood-opacity="0" result="BackgroundImageFix"/>
<feColorMatrix in="SourceAlpha" type="matrix" values="0 0 0 0 0 0 0 0 0 0 0 0 0 0 0 0 0 0 127 0" result="hardAlpha"/>
<feOffset dy="4"/>
<feGaussianBlur stdDeviation="25"/>
<feComposite in2="hardAlpha" operator="out"/>
<feColorMatrix type="matrix" values="0 0 0 0 1 0 0 0 0 0.999642 0 0 0 0 0.999642 0 0 0 1 0"/>
<feBlend mode="normal" in2="BackgroundImageFix" result="effect1_dropShadow_79_501"/>
<feBlend mode="normal" in="SourceGraphic" in2="effect1_dropShadow_79_501" result="shape"/>
</filter>
<filter id="filter1_d_79_501" x="250.431" y="10.0356" width="223.754" height="248.428" filterUnits="userSpaceOnUse" color-interpolation-filters="sRGB">
<feFlood flood-opacity="0" result="BackgroundImageFix"/>
<feColorMatrix in="SourceAlpha" type="matrix" values="0 0 0 0 0 0 0 0 0 0 0 0 0 0 0 0 0 0 127 0" result="hardAlpha"/>
<feOffset/>
<feGaussianBlur stdDeviation="20"/>
<feComposite in2="hardAlpha" operator="out"/>
<feColorMatrix type="matrix" values="0 0 0 0 1 0 0 0 0 1 0 0 0 0 1 0 0 0 1 0"/>
<feBlend mode="normal" in2="BackgroundImageFix" result="effect1_dropShadow_79_501"/>
<feBlend mode="normal" in="SourceGraphic" in2="effect1_dropShadow_79_501" result="shape"/>
</filter>
<radialGradient id="paint0_radial_79_501" cx="0" cy="0" r="1" gradientUnits="userSpaceOnUse" gradientTransform="translate(256 256) rotate(90) scale(256)">
<stop stop-color="#FCD183"/>
<stop offset="1" stop-color="#EA844B"/>
</radialGradient>
<clipPath id="clip0_79_501">
<rect width="512" height="512" fill="white"/>
</clipPath>
</defs>
</svg>
