<svg width="226" height="227" viewBox="0 0 226 227" fill="none" xmlns="http://www.w3.org/2000/svg">
<g clip-path="url(#clip0_13_2408)">
<path d="M113.006 227C99.7186 227 86.7001 224.723 74.3244 220.216C71.0406 219.025 67.7567 217.647 64.5547 216.118C57.7767 212.907 51.2908 208.995 45.2958 204.488C37.9101 198.965 31.2139 192.531 25.3474 185.339C21.9935 184.416 18.9083 182.852 16.3023 180.727C14.6662 179.396 13.6729 177.434 13.5443 175.32C13.4391 173.546 13.9767 171.794 15.0285 170.381C14.6896 169.786 14.3507 169.202 14.0234 168.607C10.576 166.19 7.72457 163.037 5.66779 159.394C5.32889 158.833 5.07179 158.32 4.88481 157.923C1.97494 151.991 1.22702 145.336 2.73455 138.96C0.911493 130.845 -0.0117188 122.485 -0.0117188 114.101C-3.25209e-05 51.843 50.6948 1.19101 113.006 1.19101C113.438 1.19101 113.882 1.19101 114.315 1.19101C116.664 0.397015 119.118 -0.0116577 121.63 -0.0116577C125.58 -0.0116577 129.425 0.992509 132.837 2.91911C158.419 7.44953 181.803 20.8073 198.818 40.6337C216.347 61.0557 226 87.1523 226 114.101C226 139.206 217.925 162.967 202.651 182.817C202.581 182.91 202.522 183.004 202.452 183.085C197.252 189.811 191.292 195.964 184.736 201.347L184.467 201.557C164.425 217.951 139.031 227 113.006 227Z" fill="white"/>
<path d="M217.773 115.234C217.773 139.474 209.581 161.799 195.791 179.606C190.941 185.899 68.6216 187.849 65.6649 186.448C59.2959 183.436 54.7149 203.811 49.1289 199.607C23.466 180.388 6.84814 149.749 6.84814 115.234C6.84814 57.0273 54.0722 9.85486 112.316 9.85486C113.181 9.85486 114.058 9.86654 114.934 9.88989C119.877 10.0067 124.727 10.462 129.472 11.2443C179.559 19.4295 217.773 62.8655 217.773 115.234Z" fill="#F8BDFF"/>
<path d="M77.725 81.8629C78.3093 78.2199 77.4328 74.5068 77.7016 70.8288C78.2743 63.0874 84.5264 56.1283 92.1692 54.7388C92.66 59.9347 91.1291 65.084 88.4179 69.5561C85.7067 74.0164 81.8619 78.6753 77.725 81.8746V81.8629Z" fill="#C0D48C"/>
<path d="M70.6431 82.1315C67.0086 82.7503 63.7599 84.782 60.1956 85.7161C52.6813 87.6777 44.0686 84.0114 40.2822 77.2391C45.0502 75.0906 50.4142 74.8805 55.5211 76.0014C60.6279 77.1223 66.2841 79.2591 70.6431 82.1315Z" fill="#C0D48C"/>
<path d="M75.7617 39.9098C81.2776 46.5186 82.0021 55.5677 78.2976 62.7954C78.2275 62.9238 77.5146 62.4218 77.4445 62.5619C77.351 62.7254 77.9002 63.5193 77.8068 63.6828C76.6148 65.7495 75.0254 67.6411 73.0972 69.2524C64.2624 76.6085 51.1037 75.4175 43.7414 66.5902C41.1354 63.4726 39.6045 59.8179 39.1136 56.0582C39.0786 55.8597 39.8031 55.3809 39.7798 55.1824C39.7564 55.0073 38.9968 55.1124 38.9851 54.9372C38.4592 48.4218 41.0068 41.7663 46.4175 37.2592C51.7815 32.7872 58.7348 31.4678 65.0103 33.1024C65.1739 33.1375 65.1973 33.8848 65.3609 33.9315C65.5012 33.9782 65.7816 33.3126 65.9219 33.3593C69.6498 34.4919 73.0972 36.6988 75.7733 39.9214L75.7617 39.9098Z" fill="#E36352"/>
<path d="M64.9989 33.0908C64.9404 33.5111 64.8937 33.9548 64.882 34.3868C64.7184 38.1116 65.7818 41.8363 67.9087 44.8839C66.2259 45.4794 64.695 46.6237 63.5264 48.1649C61.9254 45.8647 60.7451 43.3309 60.0322 40.622C59.9621 40.3651 59.705 40.2133 59.4479 40.2834C59.1908 40.3535 59.0389 40.6103 59.109 40.8672C59.8686 43.7629 61.1307 46.4719 62.872 48.9122C62.8953 48.9472 62.9304 48.9706 62.9538 48.994C62.7201 49.3676 62.5097 49.7646 62.3227 50.1616C61.9488 50.9556 61.6683 51.808 61.4813 52.707C59.1791 50.0098 56.912 47.2191 54.75 44.4051C54.5864 44.195 54.2943 44.1599 54.0839 44.3234C53.8853 44.4519 53.8385 44.7788 54.0021 44.989C56.3043 47.9781 58.7 50.9322 61.1424 53.7813C61.1775 53.828 61.2242 53.863 61.271 53.8863C61.084 55.2408 61.084 56.7003 61.2826 58.1949V58.2066C58.3728 55.6845 55.3577 53.0807 51.7817 51.3526C51.548 51.2358 51.2559 51.3409 51.1507 51.5744C51.0338 51.808 51.139 52.0882 51.3727 52.205C54.715 53.8163 57.6015 56.28 60.3828 58.6853C58.7701 59.4676 57.3678 60.5769 56.3043 61.9197C55.4629 57.9964 52.5063 54.5402 48.7901 53.3142C45.4478 52.1933 41.6965 52.8822 38.9736 54.9372C39.0087 55.3109 39.0438 55.6845 39.1022 56.0581C41.5913 53.9447 45.3193 53.1391 48.4862 54.2016C52.2492 55.451 55.1357 59.1524 55.5447 63.2041C55.5681 63.4026 55.72 63.566 55.9187 63.6127C56.1056 63.6595 56.3043 63.566 56.4212 63.3909C58.4896 59.9581 63.1758 57.8446 67.8152 58.265C71.5198 58.6036 75.1659 60.5886 77.807 63.6711C77.9706 63.3675 78.1342 63.0873 78.2861 62.7954C75.5048 59.6778 71.7418 57.6812 67.8971 57.3309C65.9338 57.1557 64.0055 57.3776 62.2175 57.9497C61.867 55.2291 62.2175 52.672 63.1875 50.5819C64.3444 48.0949 66.4363 46.25 68.8086 45.6195C68.9605 45.5845 69.0774 45.4794 69.1358 45.3159C69.1942 45.1641 69.1709 45.0006 69.0657 44.8839C66.857 41.9414 65.6767 38.1349 65.8286 34.4452C65.8403 34.0832 65.8753 33.733 65.9221 33.371C65.6299 33.2776 65.3144 33.1842 65.0106 33.1141L64.9989 33.0908Z" fill="#412945"/>
<path d="M171.309 134.336C174.85 133.297 177.83 130.904 181.265 129.561C188.499 126.735 197.486 129.386 202.032 135.668C197.544 138.353 192.239 139.194 187.038 138.668C181.838 138.143 175.971 136.683 171.309 134.336Z" fill="#C0D48C"/>
<path d="M168.025 128.055C165.898 125.042 162.661 122.999 160.288 120.185C155.275 114.253 154.877 104.912 159.365 98.5718C163.362 101.946 165.863 106.687 167.055 111.778C168.235 116.869 168.749 122.882 168.036 128.055H168.025Z" fill="#C0D48C"/>
<path d="M208.354 114.475C204.755 122.298 196.901 126.852 188.779 126.618C188.628 126.618 188.779 125.754 188.628 125.754C188.441 125.754 187.961 126.572 187.774 126.572C185.39 126.385 183.006 125.778 180.716 124.727C170.257 119.928 165.664 107.563 170.467 97.1123C172.162 93.4225 174.803 90.4567 177.981 88.4017C178.145 88.2849 178.893 88.7286 179.056 88.6235C179.208 88.5301 178.788 87.8879 178.94 87.7945C184.596 84.5135 191.713 83.9413 198.105 86.8721C204.451 89.7795 208.646 95.4776 209.873 101.841C209.908 102.005 209.242 102.355 209.265 102.518C209.289 102.67 210.002 102.623 210.025 102.775C210.609 106.628 210.095 110.68 208.354 114.487V114.475Z" fill="#E36352"/>
<path d="M209.873 101.829C209.464 101.958 209.055 102.11 208.646 102.285C205.21 103.744 202.312 106.313 200.466 109.536C199.204 108.275 197.509 107.387 195.604 107.002C196.983 104.562 198.771 102.413 200.91 100.603C201.108 100.44 201.132 100.136 200.968 99.9379C200.805 99.7394 200.501 99.716 200.302 99.8795C198.012 101.818 196.118 104.118 194.658 106.734C194.634 106.769 194.634 106.804 194.623 106.85C194.19 106.804 193.734 106.78 193.29 106.78C192.414 106.78 191.526 106.897 190.626 107.119C192.075 103.884 193.618 100.638 195.219 97.4625C195.335 97.229 195.242 96.9487 195.008 96.8203C194.81 96.7035 194.494 96.7969 194.366 97.0305C192.659 100.393 191.023 103.838 189.504 107.259C189.481 107.317 189.469 107.364 189.469 107.422C188.172 107.843 186.851 108.473 185.577 109.291V109.302C186.594 105.589 187.658 101.748 187.669 97.7894C187.669 97.5326 187.459 97.3107 187.202 97.3107C186.945 97.3107 186.723 97.5209 186.723 97.7778C186.699 101.491 185.729 105.146 184.759 108.695C183.357 107.574 181.756 106.792 180.085 106.407C183.275 103.955 185.11 99.8094 184.619 95.9212C184.187 92.43 181.943 89.3357 178.928 87.7711C178.601 87.9579 178.274 88.1564 177.97 88.3783C180.95 89.7211 183.287 92.7219 183.684 96.038C184.175 99.9612 182.083 104.165 178.589 106.278C178.414 106.383 178.332 106.593 178.379 106.792C178.414 106.979 178.589 107.119 178.799 107.154C182.784 107.539 186.723 110.855 188.335 115.211C189.633 118.702 189.411 122.847 187.763 126.548C188.102 126.56 188.441 126.595 188.768 126.607C190.381 122.753 190.567 118.503 189.224 114.884C188.534 113.039 187.494 111.392 186.22 110.026C188.534 108.543 190.988 107.749 193.29 107.714C196.037 107.679 198.608 108.777 200.185 110.645C200.279 110.774 200.431 110.832 200.594 110.809C200.758 110.809 200.886 110.703 200.957 110.563C202.663 107.294 205.596 104.597 208.985 103.149C209.312 103.009 209.651 102.88 210.002 102.764C209.967 102.448 209.908 102.133 209.85 101.829H209.873Z" fill="#412945"/>
<path d="M56.9351 166.61C56.1405 163.014 53.9551 159.873 52.8683 156.346C50.5544 148.944 53.8266 140.175 60.4176 136.076C62.7899 140.735 63.2574 146.083 62.3692 151.232C61.4811 156.381 59.6229 162.126 56.9468 166.61H56.9351Z" fill="#C0D48C"/>
<path d="M50.4379 169.459C47.2826 171.362 45.0155 174.445 42.0355 176.628C35.7717 181.205 26.3993 180.948 20.3926 176.044C24.0387 172.296 28.9586 170.124 34.1122 169.307C39.2775 168.478 45.3193 168.396 50.4262 169.471L50.4379 169.459Z" fill="#C0D48C"/>
<path d="M39.6981 128.3C47.2591 132.433 51.2558 140.583 50.4494 148.652C50.4377 148.803 49.5963 148.593 49.5729 148.745C49.5496 148.92 50.3442 149.469 50.3209 149.644C49.9703 152.003 49.1873 154.35 47.9836 156.557C42.4677 166.645 29.7882 170.358 19.6913 164.835C16.127 162.885 13.3573 160.048 11.5109 156.743C11.4057 156.568 11.8965 155.856 11.803 155.681C11.7212 155.517 11.0434 155.903 10.9733 155.739C8.09851 149.878 8.01671 142.743 11.394 136.567C14.748 130.437 20.7196 126.665 27.1588 125.883C27.3224 125.859 27.6262 126.548 27.7898 126.525C27.9417 126.513 27.9534 125.801 28.0937 125.789C31.9852 125.474 35.9935 126.268 39.6747 128.276L39.6981 128.3Z" fill="#E36352"/>
<path d="M27.1703 125.906C27.2754 126.326 27.3923 126.747 27.5325 127.155C28.7479 130.682 31.1085 133.753 34.2054 135.819C32.8615 136.987 31.8564 138.622 31.3306 140.478C28.9933 138.925 26.9716 137.01 25.3121 134.745C25.1602 134.535 24.8564 134.488 24.646 134.64C24.4357 134.792 24.3889 135.095 24.5409 135.306C26.3055 137.723 28.4791 139.778 30.9917 141.401C31.0267 141.424 31.0618 141.436 31.0968 141.447C31.015 141.879 30.9683 142.323 30.9332 142.767C30.8748 143.643 30.9332 144.542 31.0851 145.441C27.9532 143.771 24.8213 142.008 21.7712 140.186C21.5492 140.046 21.257 140.128 21.1168 140.35C20.9882 140.548 21.0584 140.864 21.2804 141.004C24.5175 142.942 27.8364 144.81 31.1553 146.562C31.202 146.585 31.2604 146.597 31.3189 146.608C31.6461 147.939 32.1837 149.294 32.9082 150.613C29.2738 149.341 25.5108 148.021 21.5609 147.718C21.3038 147.694 21.07 147.893 21.0584 148.15C21.035 148.406 21.2337 148.64 21.4908 148.652C25.1953 148.932 28.783 150.158 32.2538 151.372C31.0384 152.692 30.1386 154.233 29.6477 155.868C27.4274 152.517 23.4073 150.403 19.5041 150.613C15.9865 150.8 12.7495 152.82 10.9731 155.728C11.1368 156.066 11.312 156.405 11.5107 156.732C13.0533 153.859 16.2203 151.734 19.5508 151.571C23.5008 151.349 27.5559 153.743 29.414 157.362C29.5075 157.537 29.7062 157.642 29.9165 157.607C30.1035 157.584 30.2671 157.421 30.3022 157.21C30.9566 153.264 34.556 149.574 39.0201 148.266C42.5961 147.215 46.7096 147.729 50.2973 149.632C50.3324 149.294 50.3908 148.967 50.4259 148.64C46.698 146.76 42.4558 146.281 38.7513 147.367C36.8581 147.916 35.152 148.838 33.6912 150.018C32.3706 147.612 31.7513 145.114 31.8798 142.802C32.0317 140.058 33.3172 137.571 35.2805 136.135C35.409 136.053 35.4792 135.901 35.4675 135.738C35.4675 135.574 35.3857 135.434 35.2454 135.352C32.1018 133.426 29.6127 130.308 28.3973 126.829C28.2804 126.49 28.1753 126.151 28.0818 125.789C27.7663 125.801 27.4507 125.836 27.1352 125.883L27.1703 125.906Z" fill="#412945"/>
<path d="M76.2176 163.679V214.273C73.1091 213.14 70.0707 211.867 67.114 210.455C60.7451 207.442 54.7266 203.799 49.1406 199.607C49.2458 190.348 50.2041 172.974 50.6365 165.886C50.7416 163.936 50.8118 162.768 50.8118 162.768L73.6467 163.586L76.2059 163.679H76.2176Z" fill="#FF9582"/>
<path d="M174.428 154.548L170.28 156.09L178.998 195.357C178.939 195.404 179.115 196.77 179.045 196.817C160.872 211.681 137.629 220.601 112.304 220.601C99.6249 220.601 87.4595 218.371 76.194 214.273C73.0855 213.14 70.0471 211.867 67.0905 210.455C67.032 204.803 67.1956 196.712 68.224 190.126C69.9886 178.753 75.1189 166.832 75.1189 166.832L50.6129 165.886L47.3057 165.758C47.3057 165.758 50.5077 143.526 58.2089 124.937C65.9101 106.337 90.5097 101.526 90.5097 101.526C90.5097 101.526 120.672 96.0731 149.011 93.9363C177.362 91.7995 192.121 147.904 192.121 147.904L191.116 148.278L174.405 154.537L174.428 154.548Z" fill="#6E72FF"/>
<path d="M117.482 172.577C117.447 172.425 117.388 172.25 117.318 172.039C117.225 171.829 117.108 171.607 116.933 171.374C116.757 171.152 116.524 170.907 116.231 170.685C115.939 170.451 115.565 170.23 115.098 170.043C114.63 169.868 114.081 169.704 113.438 169.587C112.784 169.459 112.013 169.412 111.125 169.412C111.686 169.097 112.2 168.758 112.679 168.385C113.158 168.023 113.555 167.614 113.894 167.194C114.221 166.762 114.443 166.306 114.584 165.793C114.724 165.302 114.724 164.765 114.584 164.181C114.327 163.13 113.625 162.336 112.422 161.846C111.23 161.344 109.594 161.134 107.56 161.274C107.759 161.04 107.923 160.83 108.039 160.702C108.156 160.562 108.191 160.41 108.145 160.258C108.121 160.141 108.028 160.071 107.887 160.036C107.747 160.001 107.607 160.001 107.455 160.036C107.35 160.059 107.256 160.106 107.14 160.2C107.116 160.223 106.999 160.328 106.812 160.527C106.625 160.713 106.38 161.017 106.111 161.426C105.433 161.519 104.732 161.647 103.996 161.811C103.283 161.974 102.524 162.173 101.752 162.43C100.794 162.722 99.7889 163.107 98.7605 163.574C97.7322 164.053 96.7155 164.602 95.7104 165.244C94.7054 165.886 93.7238 166.61 92.8006 167.416C91.8774 168.221 91.0243 169.085 90.2647 170.019C89.505 170.965 88.8623 171.958 88.3131 173.009C87.7755 174.059 87.3665 175.169 87.1211 176.313C86.8523 177.504 86.7938 178.613 86.9107 179.606C87.0276 180.586 87.308 181.439 87.7521 182.174C88.1611 182.875 88.7104 183.436 89.3648 183.844C90.0076 184.241 90.7204 184.51 91.5034 184.626C92.2747 184.755 93.1044 184.732 93.9926 184.58C94.869 184.428 95.7806 184.136 96.6921 183.716C97.5802 183.307 98.4684 182.747 99.3332 182.046C100.186 181.345 100.981 180.505 101.705 179.524C102.418 178.543 103.049 177.422 103.587 176.173C104.125 174.923 104.522 173.522 104.732 171.993C104.791 171.981 104.861 171.969 104.919 171.958C105.048 171.911 105.118 171.899 105.246 171.853C105.761 171.689 106.322 171.502 106.929 171.292C107.537 171.082 108.215 170.732 108.787 170.58C109.664 170.323 110.797 170.37 111.674 170.393C112.562 170.428 113.345 170.557 114.011 170.755C114.677 170.942 115.215 171.234 115.635 171.572C116.044 171.923 116.302 172.343 116.407 172.833C116.512 173.265 116.453 173.709 116.267 174.188C116.08 174.667 115.741 175.134 115.25 175.577C114.759 176.021 114.105 176.441 113.287 176.862C112.468 177.259 111.463 177.621 110.271 177.924C109.395 178.158 108.495 178.333 107.595 178.438C106.695 178.543 105.772 178.578 104.861 178.555C104.791 178.555 104.709 178.566 104.65 178.59C104.522 178.625 104.44 178.707 104.358 178.823C104.288 178.94 104.253 179.045 104.312 179.185C104.382 179.372 104.534 179.477 104.779 179.477C105.831 179.501 106.836 179.454 107.806 179.337C108.776 179.209 109.675 179.034 110.54 178.8C111.078 178.66 111.639 178.485 112.211 178.275C112.807 178.064 113.357 177.808 113.894 177.539C114.432 177.259 114.946 176.967 115.437 176.628C115.916 176.29 116.325 175.916 116.664 175.507C117.003 175.099 117.26 174.655 117.4 174.176C117.564 173.697 117.587 173.172 117.47 172.623L117.482 172.577ZM104.639 164.59C104.417 165.302 104.253 166.026 104.125 166.738C103.996 167.451 103.914 168.163 103.856 168.875C103.809 169.576 103.762 170.3 103.727 171C103.283 171.199 102.956 171.374 102.769 171.526C102.594 171.677 102.535 171.853 102.594 172.028C102.652 172.203 102.792 172.308 103.003 172.32C103.201 172.343 103.388 172.331 103.564 172.273C103.353 173.662 103.003 174.923 102.512 176.056C102.009 177.189 101.448 178.205 100.794 179.08C100.14 179.956 99.4383 180.727 98.6554 181.369C97.8724 181.999 97.0894 182.501 96.2831 182.875C95.465 183.237 94.6821 183.506 93.9224 183.646C93.1628 183.786 92.4617 183.821 91.7956 183.739C91.1411 183.634 90.5334 183.424 90.0076 183.085C89.47 182.735 89.0142 182.256 88.6636 181.649C88.2897 180.995 88.0443 180.225 87.9625 179.325C87.869 178.438 87.9391 177.434 88.1845 176.348C88.4416 175.274 88.8272 174.235 89.3414 173.23C89.8556 172.238 90.475 171.292 91.1996 170.416C91.9124 169.541 92.7188 168.723 93.5952 167.964C94.4834 167.205 95.4066 166.528 96.3649 165.933C97.3114 165.337 98.2697 164.812 99.2397 164.38C100.21 163.936 101.145 163.574 102.056 163.305C102.675 163.119 103.26 162.944 103.832 162.803C104.393 162.663 104.954 162.547 105.503 162.465C105.13 163.177 104.837 163.913 104.627 164.613L104.639 164.59ZM109.781 169.074C109.348 169.284 108.904 169.541 108.542 169.646C108.086 169.786 107.525 169.833 107.069 169.938C106.614 170.043 106.216 170.148 105.842 170.265C105.726 170.3 105.585 170.335 105.433 170.393C105.281 170.451 105.094 170.498 104.907 170.557C104.884 169.914 104.908 169.237 104.978 168.525C105.036 167.813 105.165 167.077 105.328 166.365C105.492 165.641 105.69 164.917 105.959 164.228C106.228 163.527 106.532 162.862 106.918 162.243C108.811 162.044 110.342 162.15 111.452 162.511C112.574 162.873 113.24 163.516 113.45 164.391C113.567 164.823 113.567 165.22 113.474 165.594C113.368 165.968 113.205 166.318 112.983 166.645C112.761 166.984 112.48 167.287 112.13 167.579C111.791 167.871 111.417 168.128 111.019 168.385C110.622 168.618 110.213 168.863 109.792 169.074H109.781Z" fill="#F7EDE5"/>
<path d="M151.115 172.95C151.021 172.833 150.904 172.763 150.741 172.728C150.624 172.717 150.53 172.717 150.437 172.752C150.332 172.775 150.261 172.822 150.203 172.903C149.923 173.265 149.63 173.592 149.28 173.896C148.953 174.188 148.602 174.468 148.24 174.748C147.877 175.017 147.515 175.274 147.13 175.519C146.756 175.752 146.393 175.998 146.019 176.231C146.136 175.589 146.241 174.97 146.358 174.41C146.487 173.849 146.58 173.359 146.685 172.927C146.791 172.495 146.872 172.144 146.943 171.899C147.001 171.642 147.048 171.514 147.048 171.491C147.059 171.35 147.024 171.234 146.919 171.14C146.814 171.035 146.697 170.977 146.534 170.954C146.393 170.942 146.265 170.954 146.171 171C146.054 171.059 145.996 171.14 145.973 171.234C145.529 172.495 145.073 173.429 144.57 174.059C144.079 174.69 143.565 174.982 143.028 174.923C142.595 174.877 142.303 174.725 142.128 174.456C141.964 174.188 141.894 173.826 141.917 173.394C141.941 172.95 142.011 172.553 142.128 172.191C142.256 171.829 142.385 171.514 142.513 171.257C142.642 171 142.782 170.802 142.887 170.685C142.993 170.568 143.039 170.498 143.039 170.498C143.098 170.44 143.145 170.346 143.156 170.265C143.156 170.148 143.121 170.043 143.016 169.938C142.911 169.821 142.782 169.774 142.619 169.763C142.42 169.739 142.256 169.786 142.14 169.926C142.128 169.926 142.069 169.996 141.953 170.136C141.824 170.3 141.672 170.521 141.52 170.813C141.392 171.035 141.286 171.315 141.181 171.619C141.123 171.642 141.053 171.677 141.006 171.747C140.877 171.958 140.702 172.191 140.503 172.425C140.305 172.658 140.071 172.892 139.849 173.09C139.615 173.3 139.37 173.476 139.124 173.604C138.891 173.744 138.645 173.803 138.423 173.791C138.143 173.779 137.921 173.732 137.722 173.651C137.523 173.557 137.36 173.476 137.208 173.371C137.068 173.265 136.951 173.16 136.869 173.055C136.776 172.938 136.717 172.857 136.682 172.787C136.717 172.6 136.729 172.401 136.729 172.191C136.729 171.841 136.682 171.502 136.577 171.164C136.472 170.813 136.32 170.51 136.109 170.23C135.911 169.961 135.642 169.739 135.326 169.576C135.011 169.401 134.637 169.319 134.205 169.319C133.971 169.307 133.725 169.342 133.503 169.436C133.293 169.506 133.106 169.622 132.931 169.763C132.767 169.903 132.639 170.078 132.557 170.276C132.463 170.475 132.428 170.685 132.44 170.93C132.44 171.07 132.475 171.234 132.545 171.397C132.615 171.572 132.709 171.724 132.826 171.876C132.942 172.028 133.059 172.156 133.211 172.238C133.363 172.343 133.538 172.39 133.725 172.39C133.866 172.39 133.994 172.343 134.088 172.261C134.205 172.191 134.251 172.074 134.251 171.934C134.24 171.771 134.146 171.619 133.983 171.537C133.819 171.444 133.702 171.35 133.644 171.234C133.585 171.117 133.538 171.012 133.538 170.895C133.538 170.872 133.538 170.825 133.55 170.743C133.55 170.685 133.574 170.603 133.62 170.533C133.667 170.44 133.737 170.381 133.831 170.323C133.936 170.265 134.064 170.23 134.24 170.23C134.462 170.23 134.684 170.288 134.847 170.405C135.011 170.521 135.163 170.673 135.28 170.86C135.397 171.035 135.478 171.245 135.537 171.479C135.595 171.712 135.63 171.946 135.642 172.168C135.642 172.506 135.584 172.833 135.467 173.16C135.35 173.476 135.186 173.768 134.988 174.013C134.777 174.27 134.532 174.468 134.263 174.632C133.983 174.783 133.69 174.865 133.375 174.865C133.059 174.865 132.767 174.772 132.533 174.608C132.288 174.445 132.054 174.235 131.867 173.954C131.68 173.674 131.517 173.359 131.377 173.009C131.236 172.658 131.143 172.285 131.049 171.876C131.423 171.07 131.821 170.23 132.218 169.342C132.615 168.455 132.989 167.544 133.316 166.633C133.644 165.711 133.924 164.788 134.123 163.866C134.321 162.955 134.415 162.056 134.38 161.192C134.368 161.052 134.368 160.912 134.345 160.783C134.321 160.398 134.24 160.048 134.146 159.709C134.018 159.254 133.842 158.868 133.609 158.553C133.387 158.226 133.094 157.993 132.767 157.818C132.44 157.642 132.078 157.549 131.657 157.561C131.4 157.561 131.154 157.607 130.886 157.701C130.629 157.794 130.383 157.958 130.149 158.18C129.927 158.401 129.705 158.728 129.518 159.137C129.331 159.546 129.191 160.083 129.074 160.725C128.969 161.379 128.922 162.161 128.911 163.072C128.899 164.006 128.946 165.08 129.063 166.33C129.121 166.984 129.191 167.672 129.261 168.396C129.355 169.109 129.46 169.833 129.6 170.545C129.659 170.872 129.752 171.164 129.822 171.479C129.799 171.514 129.764 171.537 129.729 171.584C129.659 171.747 129.565 171.923 129.448 172.144C129.331 172.355 129.215 172.588 129.074 172.81C128.922 173.044 128.77 173.277 128.595 173.511C128.42 173.732 128.233 173.954 128.046 174.141C127.847 174.328 127.649 174.48 127.427 174.597C127.228 174.725 127.018 174.783 126.784 174.807C126.445 174.83 126.153 174.76 125.942 174.573C125.732 174.386 125.557 174.176 125.428 173.908C125.288 173.639 125.206 173.371 125.136 173.09C125.078 172.81 125.019 172.6 124.996 172.448C124.972 172.343 124.902 172.25 124.797 172.168C124.68 172.074 124.563 172.051 124.435 172.063C124.283 172.074 124.166 172.121 124.073 172.215C123.979 172.308 123.932 172.401 123.921 172.518C123.921 172.95 123.851 173.324 123.734 173.639C123.605 173.966 123.453 174.246 123.29 174.456C123.114 174.678 122.927 174.853 122.729 174.97C122.53 175.099 122.343 175.169 122.179 175.192C121.957 175.215 121.747 175.204 121.572 175.145C121.408 175.087 121.268 174.994 121.163 174.877C121.046 174.76 120.964 174.643 120.894 174.491C120.836 174.34 120.777 174.188 120.754 174.036C120.684 173.546 120.695 173.125 120.812 172.728C120.941 172.355 121.116 172.028 121.35 171.747C121.583 171.479 121.864 171.269 122.191 171.105C122.507 170.953 122.822 170.872 123.126 170.825C123.325 170.802 123.5 170.802 123.664 170.825C123.827 170.837 123.979 170.872 124.108 170.895C124.225 170.93 124.318 170.965 124.4 171.012C124.482 171.059 124.528 171.07 124.54 171.082C124.669 171.175 124.797 171.199 124.949 171.187C125.089 171.175 125.218 171.117 125.3 171.012C125.405 170.907 125.44 170.802 125.428 170.685C125.417 170.568 125.335 170.463 125.23 170.37C125.218 170.358 125.159 170.335 125.054 170.265C124.949 170.206 124.809 170.136 124.61 170.078C124.423 170.019 124.178 169.961 123.932 169.926C123.664 169.879 123.383 169.879 123.079 169.914C122.624 169.961 122.179 170.101 121.724 170.311C121.268 170.533 120.882 170.825 120.543 171.199C120.204 171.572 119.947 172.016 119.784 172.53C119.62 173.032 119.597 173.604 119.714 174.223C119.76 174.538 119.866 174.818 120.029 175.052C120.181 175.309 120.368 175.507 120.59 175.682C120.8 175.846 121.069 175.963 121.361 176.033C121.654 176.103 121.969 176.126 122.308 176.068C122.74 176.021 123.138 175.834 123.535 175.519C123.921 175.204 124.248 174.807 124.517 174.316C124.739 174.748 125.043 175.099 125.452 175.355C125.849 175.624 126.316 175.717 126.842 175.682C127.216 175.659 127.567 175.542 127.894 175.367C128.221 175.192 128.525 174.982 128.794 174.713C129.074 174.456 129.32 174.176 129.553 173.873C129.776 173.569 129.962 173.277 130.149 173.02C130.173 172.974 130.196 172.927 130.22 172.88C130.395 173.371 130.582 173.826 130.827 174.211C131.131 174.69 131.482 175.064 131.891 175.355C132.288 175.636 132.779 175.764 133.351 175.764C133.655 175.764 133.959 175.717 134.24 175.612C134.532 175.519 134.801 175.391 135.058 175.227C135.326 175.052 135.56 174.853 135.771 174.62C135.981 174.398 136.168 174.129 136.32 173.849C136.53 174.036 136.822 174.223 137.15 174.375C137.488 174.538 137.909 174.643 138.388 174.667C138.692 174.678 138.984 174.632 139.265 174.526C139.557 174.421 139.826 174.293 140.083 174.118C140.34 173.954 140.574 173.767 140.784 173.569C140.796 173.557 140.807 173.546 140.819 173.534C140.831 174.141 141.006 174.655 141.345 175.04C141.719 175.484 142.268 175.741 142.981 175.811C143.413 175.858 143.811 175.788 144.196 175.612C144.57 175.426 144.897 175.157 145.19 174.818C145.131 175.169 145.061 175.542 145.003 175.963C144.944 176.371 144.874 176.78 144.827 177.154C144.453 177.457 144.103 177.796 143.729 178.169C143.378 178.543 143.039 178.952 142.724 179.372C142.397 179.816 142.104 180.248 141.836 180.715C141.567 181.17 141.333 181.637 141.135 182.081C140.936 182.548 140.772 182.98 140.644 183.424C140.527 183.868 140.457 184.265 140.433 184.65C140.375 185.362 140.492 185.923 140.772 186.343C141.064 186.775 141.485 187.008 142.069 187.067C142.42 187.09 142.747 187.044 143.028 186.903C143.32 186.763 143.577 186.553 143.811 186.273C144.044 185.993 144.266 185.666 144.442 185.28C144.617 184.895 144.781 184.463 144.921 183.996C145.061 183.541 145.166 183.05 145.271 182.548C145.365 182.034 145.447 181.532 145.505 181.019C145.575 180.388 145.634 179.804 145.657 179.232C145.68 178.66 145.751 178.111 145.844 177.562C146.253 177.247 146.697 176.932 147.165 176.628C147.632 176.325 148.1 176.009 148.567 175.682C149.034 175.367 149.478 175.017 149.934 174.655C150.378 174.293 150.787 173.873 151.161 173.429C151.196 173.382 151.22 173.312 151.231 173.254C151.243 173.125 151.208 173.02 151.115 172.903V172.95ZM130.652 170.358C130.617 170.171 130.582 169.926 130.535 169.646C130.5 169.354 130.465 169.027 130.418 168.688C130.383 168.338 130.348 167.976 130.301 167.591C130.266 167.205 130.231 166.82 130.196 166.458C130.103 165.337 130.068 164.368 130.079 163.551C130.091 162.733 130.126 162.021 130.208 161.426C130.243 161.169 130.266 160.947 130.325 160.737C130.372 160.445 130.442 160.2 130.5 159.966C130.629 159.592 130.757 159.289 130.886 159.067C131.026 158.857 131.154 158.705 131.283 158.612C131.412 158.518 131.517 158.471 131.61 158.471C131.879 158.471 132.101 158.565 132.276 158.728C132.463 158.904 132.604 159.125 132.72 159.394C132.849 159.662 132.919 159.954 132.989 160.27C133.013 160.445 133.036 160.608 133.048 160.772C133.071 160.912 133.083 161.052 133.083 161.18C133.129 161.951 133.071 162.722 132.931 163.516C132.779 164.31 132.58 165.092 132.335 165.874C132.101 166.657 131.821 167.416 131.505 168.175C131.201 168.933 130.897 169.657 130.629 170.346L130.652 170.358ZM144.559 179.781C144.535 180.131 144.512 180.481 144.465 180.82C144.372 181.672 144.255 182.443 144.091 183.12C143.939 183.797 143.764 184.358 143.565 184.825C143.367 185.292 143.133 185.642 142.899 185.876C142.665 186.098 142.397 186.214 142.116 186.179C141.812 186.156 141.602 186.016 141.473 185.771C141.357 185.514 141.31 185.175 141.345 184.767C141.38 184.358 141.485 183.891 141.66 183.389C141.836 182.875 142.058 182.35 142.35 181.789C142.63 181.252 142.969 180.692 143.355 180.154C143.741 179.617 144.173 179.115 144.64 178.637C144.605 179.034 144.582 179.419 144.547 179.781H144.559Z" fill="#F7EDE5"/>
<path d="M168.188 157.094C167.943 157.094 167.732 156.907 167.721 156.662C166.622 142.125 158.641 134.278 158.559 134.208C158.372 134.033 158.372 133.729 158.547 133.542C158.734 133.356 159.026 133.356 159.213 133.531C159.295 133.613 167.534 141.681 168.667 156.603C168.691 156.86 168.492 157.094 168.235 157.105C168.223 157.105 168.212 157.105 168.2 157.105L168.188 157.094Z" fill="#412945"/>
<path d="M110.423 152.68C88.4066 153.381 77.8305 163.621 75.3998 166.341C70.0592 157.526 75.8439 140.116 75.9023 139.941C75.9841 139.696 75.8555 139.427 75.6101 139.346C75.3647 139.264 75.0959 139.392 75.0141 139.638C74.757 140.385 68.9139 157.969 74.7454 167.077C74.7454 167.089 74.7804 167.1 74.7921 167.112C74.722 167.299 74.7687 167.521 74.944 167.649C75.0258 167.707 75.131 167.743 75.2245 167.743C75.3647 167.743 75.5166 167.672 75.5985 167.556C75.6919 167.427 85.6486 154.396 110.447 153.614C110.704 153.614 110.914 153.392 110.903 153.124C110.903 152.867 110.681 152.68 110.412 152.668L110.423 152.68Z" fill="#412945"/>
<path d="M195.791 179.606C190.941 185.899 185.39 191.621 179.255 196.653C179.196 196.7 179.115 196.77 179.056 196.817L141.567 160.795C141.567 160.795 138.435 160.818 134.298 160.795C133.901 160.795 133.48 160.783 133.071 160.783C132.194 160.772 131.271 160.76 130.348 160.748C129.916 160.737 129.483 160.737 129.039 160.725C124.084 160.62 118.931 160.421 116.219 160.001C109.956 159.044 108.682 156.475 108.682 156.475C108.682 156.475 104.814 155.763 102.804 153.848C102.768 153.813 102.71 153.754 102.675 153.708C102.652 153.684 102.628 153.661 102.605 153.649C102.219 153.24 101.904 152.773 101.752 152.248H101.74C101.682 152.014 101.635 151.769 101.623 151.524C101.46 147.834 106.917 146.071 106.917 146.071C107.957 143.07 116.091 141.506 124.353 140.84C124.388 140.84 124.446 140.84 124.493 140.829C130.336 140.373 136.214 140.361 139.662 140.63C141.181 140.758 143.121 141.19 145.236 141.856C145.26 141.868 145.271 141.868 145.283 141.868C150.215 143.374 156.245 146.001 160.896 148.185C160.931 148.208 160.966 148.22 161.013 148.231C162.029 148.71 162.988 149.165 163.841 149.574C164.355 149.831 164.892 150.088 165.442 150.356C166.295 150.788 166.996 151.139 167.499 151.384C168.059 151.676 168.375 151.839 168.375 151.839L168.539 151.816L191.151 148.313H191.163C191.28 148.71 193.617 156.615 195.814 173.966C196.083 176.009 196.048 177.901 195.814 179.629L195.791 179.606Z" fill="#FF9582"/>
<path d="M185.484 159.16C185.32 159.079 168.855 151.489 159.178 146.818L158.407 146.445C149.257 142.02 144.208 139.579 125.744 140.28C108.717 140.934 106.696 144.717 106.462 145.803C105.036 146.316 103.809 146.994 102.897 147.858C101.67 149.037 101.121 150.485 101.25 152.085C101.226 152.365 101.191 154.84 107.981 156.44C111.382 157.245 116.372 157.444 120.45 157.444C124.248 157.444 127.275 157.269 127.532 157.257C127.789 157.245 127.988 157.024 127.976 156.755C127.964 156.498 127.731 156.276 127.474 156.311C127.345 156.311 114.63 157.035 108.191 155.517C102.243 154.116 102.185 152.178 102.185 152.096C102.173 151.886 102.185 151.676 102.196 151.477L125.896 151.057C126.153 151.057 126.363 150.835 126.363 150.578C126.363 150.321 126.153 150.111 125.896 150.111L102.36 150.532C102.559 149.796 102.944 149.13 103.564 148.535C108.682 143.619 125.884 145.522 126.06 145.546C126.317 145.581 126.55 145.394 126.585 145.137C126.621 144.88 126.434 144.647 126.176 144.612C125.604 144.542 114.946 143.362 107.759 145.394C108.741 144.191 112.387 141.739 125.791 141.226C144.021 140.525 148.696 142.79 157.998 147.297L158.769 147.671C168.446 152.341 184.923 159.943 185.087 160.013C185.157 160.048 185.215 160.059 185.285 160.059C185.461 160.059 185.636 159.954 185.718 159.791C185.823 159.557 185.718 159.277 185.484 159.16Z" fill="#412945"/>
<path d="M149.046 93.9479C149.046 93.9479 142.315 109.442 124.026 113.494C105.737 117.557 90.5451 101.526 90.5451 101.526L105.948 96.832L104.978 92.43C102.968 92.6985 101.109 92.792 99.5201 92.6635C97.1478 92.465 94.9508 90.6552 92.9992 88.0514C91.7488 86.3816 94.086 82.3066 93.046 80.2048C92.0293 78.1381 87.6235 78.0447 86.8406 75.9547C85.1928 71.576 84.0592 67.5944 83.5801 65.7845C82.692 63.2741 82.1895 60.6003 82.1895 57.7863C82.1895 44.4635 93.0109 33.6629 106.345 33.6629C119.679 33.6629 130.489 44.4635 130.489 57.7863C130.489 57.9614 130.465 58.1365 130.465 58.3117C132.323 56.8171 135 56.1983 137.08 57.3425C138.342 58.0431 139.218 59.2808 139.744 60.6119C140.737 63.0873 140.562 65.9947 139.277 68.33C138.003 70.6653 135.642 72.3934 133.036 72.9188C131.961 73.1173 130.804 73.129 129.811 72.6619C129.869 73.3859 129.939 74.0981 129.986 74.787L134.298 92.1147L149.058 93.9362L149.046 93.9479Z" fill="#FF9582"/>
<path d="M94.3778 71.541C94.7051 72.9188 94.1558 74.2382 93.1508 74.4834C92.1341 74.7286 91.0473 73.8062 90.72 72.4284C90.3928 71.0506 90.9421 69.7312 91.9471 69.486C92.9638 69.2408 94.0506 70.1632 94.3778 71.541Z" fill="#412945"/>
<path d="M111.79 66.742C112.118 68.1199 111.568 69.4393 110.563 69.6845C109.547 69.9297 108.46 69.0073 108.133 67.6294C107.805 66.2516 108.355 64.9322 109.36 64.687C110.376 64.4418 111.463 65.3642 111.79 66.742Z" fill="#412945"/>
<path d="M103.703 80.6369C102.593 80.6369 101.483 80.3683 100.501 79.8195C100.279 79.6911 100.198 79.4109 100.314 79.1773C100.443 78.9438 100.723 78.8738 100.957 78.9905C102.511 79.8546 104.475 79.913 106.087 79.1657C107.7 78.4067 108.892 76.8538 109.219 75.1023C109.266 74.8454 109.523 74.682 109.769 74.7287C110.026 74.7754 110.189 75.0206 110.143 75.2774C109.757 77.3208 108.355 79.1306 106.485 80.018C105.608 80.4267 104.65 80.6369 103.692 80.6369H103.703Z" fill="#412945"/>
<path d="M87.261 67.571C87.261 67.571 87.1441 67.571 87.0974 67.536C86.852 67.4426 86.7351 67.174 86.8169 66.9288C87.3545 65.4927 88.4647 64.29 89.8553 63.6244C90.0891 63.5194 90.3695 63.6244 90.4864 63.8463C90.6033 64.0798 90.4981 64.36 90.2644 64.4768C89.0957 65.0373 88.1608 66.0531 87.7051 67.2558C87.635 67.4426 87.4597 67.5594 87.261 67.5594V67.571Z" fill="#412945"/>
<path d="M111.288 60.9739C111.218 60.9739 111.148 60.9623 111.078 60.9272C109.547 60.1566 107.724 60.0048 106.088 60.5069C105.842 60.5886 105.574 60.4368 105.503 60.1916C105.433 59.9464 105.574 59.6779 105.819 59.6078C107.689 59.0357 109.757 59.2108 111.51 60.0865C111.744 60.2033 111.837 60.4835 111.72 60.7171C111.639 60.8805 111.475 60.9739 111.3 60.9739H111.288Z" fill="#412945"/>
<path d="M125.195 73.7946C125.195 77.5427 122.156 80.5785 118.405 80.5785C114.654 80.5785 111.615 77.5427 111.615 73.7946C111.615 70.0465 114.654 67.0106 118.405 67.0106C122.156 67.0106 125.195 70.0465 125.195 73.7946Z" fill="#E36352"/>
<path d="M96.797 81.9797C96.797 84.6535 95.2544 86.9655 92.999 88.063C90.5215 84.7586 88.4413 80.1932 86.8403 75.9663C87.7869 75.4759 88.862 75.184 90.0073 75.184C93.7469 75.184 96.797 78.2199 96.797 81.9797Z" fill="#E36352"/>
<path d="M131.961 70.9338C131.704 70.9338 131.494 70.712 131.494 70.4551C131.564 66.4034 133.504 62.4801 136.694 59.9697C136.904 59.8063 137.197 59.8413 137.36 60.0515C137.524 60.2616 137.489 60.5535 137.278 60.717C134.31 63.0523 132.499 66.707 132.44 70.4784C132.44 70.7353 132.23 70.9455 131.973 70.9455L131.961 70.9338Z" fill="#412945"/>
<path d="M135.034 35.4845C134.31 35.0291 133.34 34.6321 132.23 34.2935C134.731 31.5729 136.262 27.9532 136.262 23.9716C136.262 15.5179 129.402 8.66388 120.941 8.66388C112.48 8.66388 105.62 15.5179 105.62 23.9716C105.62 26.6571 106.31 29.1676 107.525 31.3627C101.916 30.5921 91.1176 30.2651 82.8438 36.9557C71.9522 45.748 78.4614 63.1691 78.4614 63.1691L105.41 54.622L107.876 40.3068C108.074 46.0632 109.921 61.5344 123.909 62.3167L129.261 67.0223L130.372 58.5686C130.372 58.5686 135.572 54.3067 139.101 59.3276C139.101 59.3276 140.492 38.9173 135.034 35.4961V35.4845Z" fill="#412945"/>
<path d="M104.978 92.4301C104.978 92.4301 117.225 90.9004 124.014 86.5101C124.014 86.5101 121.876 92.5468 115.296 94.1465C108.717 95.7461 104.966 92.4184 104.966 92.4184L104.978 92.4301Z" fill="#412945"/>
<path d="M172.664 57.2609L177.584 59.0824C178.776 59.5261 178.776 61.1958 177.584 61.6395L172.664 63.461C172.29 63.6011 171.998 63.893 171.858 64.2667L170.035 69.1824C169.59 70.3734 167.919 70.3734 167.475 69.1824L165.652 64.2667C165.512 63.893 165.22 63.6011 164.846 63.461L160.113 61.7095C158.909 61.2658 158.933 59.5377 160.16 59.1407L164.811 57.5995C165.208 57.471 165.524 57.1558 165.664 56.7588L167.499 51.6212C167.931 50.4185 169.626 50.4068 170.058 51.6095L171.858 56.4669C171.998 56.8405 172.29 57.1324 172.664 57.2725V57.2609Z" fill="white"/>
<path d="M197.264 158.355L202.183 160.176C203.375 160.62 203.375 162.29 202.183 162.733L197.264 164.555C196.89 164.695 196.597 164.987 196.457 165.361L194.634 170.276C194.19 171.467 192.519 171.467 192.075 170.276L190.252 165.361C190.112 164.987 189.819 164.695 189.445 164.555L184.713 162.803C183.509 162.36 183.532 160.632 184.759 160.235L189.41 158.693C189.808 158.565 190.123 158.25 190.264 157.853L192.098 152.715C192.531 151.512 194.225 151.501 194.658 152.703L196.457 157.561C196.597 157.934 196.89 158.226 197.264 158.366V158.355Z" fill="white"/>
<path d="M35.3275 97.0188L40.2474 98.8404C41.4394 99.2841 41.4394 100.954 40.2474 101.397L35.3275 103.219C34.9536 103.359 34.6614 103.651 34.5212 104.025L32.6981 108.94C32.2541 110.131 30.5829 110.131 30.1389 108.94L28.3158 104.025C28.1756 103.651 27.8834 103.359 27.5095 103.219L22.7765 101.468C21.5728 101.024 21.5962 99.2957 22.8233 98.8987L27.4744 97.3575C27.8717 97.229 28.1873 96.9138 28.3275 96.5168L30.1622 91.3792C30.5946 90.1765 32.2891 90.1648 32.7215 91.3675L34.5212 96.2249C34.6614 96.5985 34.9536 96.8904 35.3275 97.0305V97.0188Z" fill="white"/>
</g>
<defs>
<clipPath id="clip0_13_2408">
<rect width="226" height="227" fill="white"/>
</clipPath>
</defs>
</svg>
