<svg width="35" height="33" viewBox="0 0 35 33" fill="none" xmlns="http://www.w3.org/2000/svg">
<g clip-path="url(#clip0_13_979)">
<path fill-rule="evenodd" clip-rule="evenodd" d="M23.3333 0H21V2.35714H30.3333V0H23.3333ZM32.6667 4.71429V2.35714H30.3333V4.71429H32.6667ZM32.6667 16.5H35V4.71429H32.6667V16.5ZM30.3333 18.8571H32.6667V16.5H30.3333V18.8571ZM28 21.2143H30.3333V18.8571H28V21.2143ZM25.6667 23.5714H28V21.2143H25.6667V23.5714ZM23.3333 25.9286H25.6667V23.5714H23.3333V25.9286ZM21 28.2857H23.3333V25.9286H21V28.2857ZM14 2.35714V0H4.66667V2.35714H2.33333V4.71429H0V16.5H2.33333V18.8571H4.66667V21.2143H7V23.5714H9.33333V25.9286H11.6667V28.2857H14V30.6429H16.3333V33H18.6667V30.6429H21V28.2857H16.3333V25.9286H14V23.5714H11.6667V21.2143H9.33333V18.8571H7V16.5H4.66667V7.07143H7V4.71429H9.33333V2.35714H14ZM16.3333 4.71429V2.35714H14V4.71429H16.3333ZM18.6667 4.71429H16.3333V7.07143H18.6667V4.71429ZM18.6667 4.71429V2.35714H21V4.71429H18.6667ZM28 4.71429H25.6667V7.07143H28V4.71429ZM28 7.07143V9.42857H30.3333V7.07143H28Z" fill="#FFE9E9"/>
</g>
<defs>
<clipPath id="clip0_13_979">
<rect width="35" height="33" fill="white"/>
</clipPath>
</defs>
</svg>
