<svg width="240" height="245" viewBox="0 0 240 245" fill="none" xmlns="http://www.w3.org/2000/svg">
<g clip-path="url(#clip0_13_2364)">
<path d="M110.02 245C87.981 245 72.0643 242.513 62.7023 237.615C48.3191 230.093 42.4693 219.264 40.1567 210.636C14.5934 187.722 0 155.074 0 120.635C0 101.489 4.5759 82.4665 13.2578 65.5082C13.6164 62.6363 14.1729 59.8638 14.9397 57.228C18.9096 43.5395 29.2487 32.8225 42.1849 28.8316C63.8895 10.2322 91.4563 0 120 0C186.165 0 240 54.1198 240 120.635C240 142.479 234.138 163.827 223.02 182.501C221.424 195.779 213.856 209.044 210.269 214.701C209.935 216.094 209.267 217.337 208.377 218.357C202.774 229.646 186.487 235.004 171.411 239.169C162.741 241.556 135.88 245.025 110.02 245.025V245Z" fill="white"/>
<path d="M200.208 201.099C243.941 157.135 243.941 85.8538 200.208 41.8891C156.474 -2.07563 85.5687 -2.07564 41.8355 41.8891C-1.89778 85.8538 -1.89778 157.135 41.8355 201.099C85.5687 245.064 156.474 245.064 200.208 201.099Z" fill="#6E72FF"/>
<path d="M164.832 45.2926C167.763 49.9549 170.409 55.6118 168.566 60.7962C167.379 64.1282 164.498 66.6148 161.307 68.0943C158.116 69.5737 154.604 70.1705 151.129 70.7549C156.768 76.2999 157.139 86.358 151.945 92.3133C146.738 98.281 136.782 99.2135 130.574 94.3149C129.783 102.632 123.747 110.03 116.043 113.126C108.325 116.221 99.2724 115.227 92.0005 111.186C84.7285 107.146 79.2127 100.27 76.059 92.5495C74.8594 89.6154 73.9689 86.5445 73.6226 83.399C73.3011 80.5643 73.4124 77.7048 73.771 74.8701C75.8735 58.6702 86.4352 44.6336 99.124 34.4263C102.364 31.8279 105.778 29.4035 109.574 27.7251C116.822 24.5174 125.071 24.1942 132.924 25.251C140.01 26.2083 148.198 27.9737 154.344 31.8403C158.858 34.6874 162.086 40.9162 164.832 45.2801V45.2926Z" fill="#412945"/>
<path d="M47.8738 198.912C47.8738 198.912 45.153 219.699 67.4141 231.336C89.6753 242.986 156.236 236.135 170.323 232.244C184.409 228.365 200.536 223.106 203.034 213.52C203.034 213.52 230.069 175.153 207.128 160.992C183.667 146.508 156.014 168.302 156.014 168.302L47.8861 198.899L47.8738 198.912Z" fill="#412945"/>
<path d="M193.771 187.001C190.16 183.657 183.617 182.351 177.1 181.978L178.225 181.096C183.296 177.13 188.527 173.027 194.661 170.801C194.921 170.702 195.057 170.416 194.958 170.155C194.859 169.894 194.575 169.757 194.315 169.856C188.032 172.132 182.727 176.284 177.594 180.3L175.541 181.904C166.798 181.593 158.524 182.836 157.906 182.923C157.634 182.961 157.448 183.222 157.485 183.495C157.522 183.769 157.794 183.968 158.054 183.918C158.203 183.893 166.612 182.637 175.43 182.936C175.492 182.961 175.554 182.985 175.616 182.985C175.653 182.985 175.678 182.961 175.702 182.948C182.467 183.197 189.442 184.378 193.066 187.735C201.822 195.841 202.997 210.437 202.515 213.433C202.465 213.707 202.651 213.968 202.923 214.005C202.947 214.005 202.972 214.005 203.009 214.005C203.244 214.005 203.467 213.831 203.504 213.582C204.011 210.474 202.799 195.368 193.746 186.989L193.771 187.001Z" fill="#6E72FF"/>
<path d="M81.1543 68.1688C81.1543 68.1688 65.3612 63.4817 53.7854 78.7864C42.1973 94.0911 17.5492 145.414 20.505 157.063C23.4608 168.713 50.607 172.654 50.607 172.654L46.2908 199.596C46.2908 199.596 121.249 206.446 157.374 183.843C157.374 183.843 166.006 157.125 150.56 142.504C135.113 127.883 121.261 129.947 121.261 129.947C121.261 129.947 127.173 122.637 125.8 118.074C124.44 113.511 113.309 96.6026 110.131 90.8959C106.952 85.1893 101.956 76.9712 101.956 76.9712L81.1667 68.1813L81.1543 68.1688Z" fill="#F8BDFF"/>
<path d="M94.1028 152.6C94.1028 152.6 101.263 153.109 107.224 152.6C113.186 152.09 119.827 149.865 122.387 149.865C124.947 149.865 134.989 151.406 134.989 151.406C134.989 151.406 135.162 152.6 133.109 153.806C131.056 155.012 125.615 156.205 125.615 156.205C125.615 156.205 143.164 159.972 142.484 165.878C142.484 165.878 144.524 169.558 142.83 171.783C141.123 174.009 127.668 173.151 127.668 173.151C127.668 173.151 138.056 175.551 137.549 177.428C137.042 179.318 112.678 176.918 109.438 174.693C106.198 172.467 102.797 169.21 99.5568 169.21C96.3165 169.21 89.6753 168.862 89.6753 168.862L94.1028 152.587V152.6Z" fill="#FF9582"/>
<g opacity="0.35">
<path d="M94.1028 152.6C94.1028 152.6 101.263 153.109 107.224 152.6C113.186 152.09 119.827 149.865 122.387 149.865C124.947 149.865 134.989 151.406 134.989 151.406C134.989 151.406 135.162 152.6 133.109 153.806C131.056 155.012 125.615 156.205 125.615 156.205C125.615 156.205 143.164 159.972 142.484 165.878C142.484 165.878 144.524 169.558 142.83 171.783C141.123 174.009 127.668 173.151 127.668 173.151C127.668 173.151 138.056 175.551 137.549 177.428C137.042 179.318 112.678 176.918 109.438 174.693C106.198 172.467 102.797 169.21 99.5568 169.21C96.3165 169.21 89.6753 168.862 89.6753 168.862L94.1028 152.587V152.6Z" fill="#412945"/>
</g>
<path d="M143.894 168.464C143.869 167.768 143.523 167.109 142.966 166.487C142.979 166.425 142.991 166.375 142.979 166.313C142.471 161.166 133.987 158.033 130.364 156.914C125.367 155.385 120.458 154.589 120.421 154.589C120.148 154.552 119.889 154.738 119.852 155.012C119.815 155.285 120 155.546 120.272 155.584C120.322 155.584 125.157 156.367 130.092 157.884C135.101 159.425 140.517 162.148 141.754 165.405C137.228 162.161 127.074 160.196 125.615 159.923C125.343 159.873 125.083 160.047 125.034 160.32C124.984 160.594 125.157 160.855 125.429 160.905C130.141 161.775 142.076 164.734 142.83 168.203L124.848 165.505C124.576 165.468 124.316 165.654 124.279 165.928C124.242 166.201 124.428 166.462 124.7 166.5L143.127 169.272C143.189 169.533 143.213 169.894 143.102 170.267C142.904 170.901 142.335 171.448 141.433 171.883C139.095 173.014 129.399 172.791 124.588 172.517C124.341 172.492 124.081 172.716 124.057 172.989C124.044 173.263 124.254 173.499 124.526 173.524C124.811 173.537 128.41 173.735 132.318 173.735C136.226 173.735 140.307 173.537 141.865 172.791C143.04 172.219 143.782 171.473 144.067 170.553C144.364 169.595 144.067 168.762 143.918 168.452L143.894 168.464Z" fill="#412945"/>
<path d="M94.9809 151.145C94.9067 151.033 94.7954 150.946 94.6717 150.909L88.2407 149.405C88.1912 148.373 87.8326 145.712 85.6436 144.245C84.2461 143.312 75.0448 142.082 63.1722 140.565C61.1563 140.304 59.1157 140.043 57.3101 139.806L75.0077 107.792C75.1437 107.543 75.0572 107.245 74.8098 107.108C74.5625 106.972 74.2657 107.059 74.1296 107.307L56.2341 139.657C53.8472 139.334 52.0416 139.06 51.6087 138.911C51.5345 138.837 51.4356 138.799 51.3243 138.787C51.0399 138.762 50.8049 138.973 50.7801 139.247C50.7183 139.956 50.7183 139.981 63.0361 141.559C71.2851 142.616 83.7638 144.195 85.0747 145.078C87.3008 146.57 87.239 149.753 87.239 149.778C87.239 150.014 87.3997 150.225 87.6223 150.287L93.942 151.767L89.0817 170.329L83.8627 169.285C83.7143 169.26 83.5659 169.285 83.4422 169.384C83.3309 169.483 83.2567 169.62 83.2567 169.769C83.2567 169.807 83.2196 174.084 80.7832 174.767C78.5324 175.401 58.2747 173.077 50.6565 172.132C50.3844 172.094 50.137 172.293 50.0999 172.567C50.0628 172.84 50.2607 173.089 50.5328 173.126C51.5345 173.251 72.6208 175.874 79.2992 175.874C80.1278 175.874 80.7338 175.837 81.0553 175.75C83.5906 175.041 84.1224 171.771 84.2337 170.391L89.3414 171.423C89.6011 171.473 89.8608 171.311 89.9227 171.062L95.0304 151.543C95.0675 151.406 95.0427 151.269 94.9809 151.158V151.145Z" fill="#412945"/>
<path d="M153.738 47.344C153.701 53.9085 151.722 59.2048 147.171 63.2455L146.293 63.892C146.293 63.892 139.726 69.6359 133.283 74.5344C133.159 74.6339 132.442 73.5398 132.318 73.6393C132.182 73.7511 132.627 75.0566 132.491 75.1685C127.544 78.8859 122.832 81.9443 121.373 81.3724C120.581 81.0492 119.196 80.154 117.551 78.861C115.906 77.5556 114.039 75.902 112.295 74.062C107.93 77.4934 106.594 83.5482 109.142 88.4964C111.553 93.2333 113.755 98.3804 112.345 99.1886C109.611 100.73 81.1543 68.1813 81.1543 68.1813L109.488 46.3991C109.97 32.2133 123.624 21.3968 138.563 25.9969C147.765 28.8316 153.788 37.6837 153.738 47.3688V47.344Z" fill="#FF9582"/>
<g opacity="0.35">
<path d="M153.738 47.344C153.701 53.9085 151.722 59.2048 147.171 63.2455L146.293 63.892C146.293 63.892 139.726 69.6359 133.283 74.5344C133.159 74.6339 132.442 73.5398 132.318 73.6393C132.182 73.7511 132.627 75.0566 132.491 75.1685C127.544 78.8859 122.832 81.9443 121.373 81.3724C120.581 81.0492 119.196 80.154 117.551 78.861C115.906 77.5556 114.039 75.902 112.295 74.062C107.93 77.4934 106.594 83.5482 109.142 88.4964C111.553 93.2333 113.755 98.3804 112.345 99.1886C109.611 100.73 81.1543 68.1813 81.1543 68.1813L109.488 46.3991C109.97 32.2133 123.624 21.3968 138.563 25.9969C147.765 28.8316 153.788 37.6837 153.738 47.3688V47.344Z" fill="#412945"/>
</g>
<path d="M151.685 28.4959C147.406 24.1817 143.09 19.8178 138.093 16.3491C133.097 12.8679 127.321 10.2943 121.261 9.9711C118.071 9.79704 114.843 10.2446 111.813 11.3014C106.47 13.1539 101.486 17.4681 100.893 23.1374C95.7725 21.0984 89.7991 19.9919 84.3203 20.4395C81.0677 20.6881 77.7904 21.4217 74.9707 23.0379C69.8011 26.0218 66.6722 31.7906 65.6704 37.6713C65.9054 36.3037 53.0434 36.0177 51.8562 36.1296C38.1903 37.4102 27.4431 47.2569 23.6463 60.3362C20.0227 72.8311 22.1128 86.7185 27.7275 98.3059C29.0261 100.991 30.5349 103.553 32.0314 106.126C32.2292 106.462 35.1603 111.36 35.4942 110.987L51.4233 94.7998C57.8914 88.1732 61.6263 83.859 62.5168 77.3691C62.5663 77.021 63.2465 72.6819 63.3825 72.6819C69.6775 77.1826 77.8151 78.4259 85.1119 75.9145C92.4086 73.403 98.3696 67.2115 100.608 59.7767C105.357 64.3271 113.408 64.7623 119.382 62.0768C125.38 59.3789 129.523 53.1003 129.956 46.5234C133.097 48.1024 136.597 48.8856 140.06 48.264C142.039 47.9035 143.931 47.1948 145.774 46.3742C151.005 44.0369 156.224 40.3195 157.621 34.7496C155.618 32.7231 153.689 30.51 151.685 28.4835V28.4959Z" fill="#412945"/>
<path d="M129.028 69.5365C132.648 69.5365 135.583 66.5863 135.583 62.9471C135.583 59.3079 132.648 56.3577 129.028 56.3577C125.408 56.3577 122.473 59.3079 122.473 62.9471C122.473 66.5863 125.408 69.5365 129.028 69.5365Z" fill="#E36352"/>
<path d="M139.577 64.6006C138.65 65.5331 137.388 65.7942 136.782 65.1725C136.164 64.5509 136.424 63.2952 137.351 62.3627C138.279 61.4303 139.54 61.1692 140.146 61.7908C140.765 62.4125 140.505 63.6682 139.577 64.6006Z" fill="#412945"/>
<path d="M133.283 74.522C133.01 74.7333 132.751 74.9571 132.479 75.156C131.489 73.3036 131.131 71.1278 131.44 69.064C131.539 68.318 131.737 67.5721 132.009 66.8758C132.108 66.6147 132.392 66.5028 132.664 66.6023C132.912 66.7018 133.035 66.9877 132.936 67.2488C132.776 67.6467 132.639 68.0694 132.553 68.4921C132.083 70.5062 132.355 72.6819 133.283 74.522Z" fill="#412945"/>
<path d="M145.106 59.6897C144.92 59.6897 144.747 59.5902 144.66 59.4038C144.067 58.1853 142.867 57.2405 141.544 56.9545C141.272 56.8923 141.099 56.6313 141.16 56.3577C141.222 56.0842 141.482 55.9102 141.754 55.9723C143.399 56.3329 144.821 57.4518 145.551 58.9686C145.675 59.2173 145.576 59.5157 145.316 59.64C145.242 59.6773 145.167 59.6897 145.093 59.6897H145.106Z" fill="#412945"/>
<path d="M174.861 101.625C174.861 101.625 176.222 82.2178 169.407 82.4416C162.593 82.6654 166.909 125.372 166.909 125.372C166.909 125.372 198.26 96.1425 192.806 89.2921C187.352 82.4416 174.861 101.625 174.861 101.625Z" fill="#E36352"/>
<path d="M177.78 51.4717L183.011 53.4236C184.273 53.896 184.273 55.6864 183.011 56.1588L177.78 58.1108C177.384 58.2599 177.075 58.5708 176.927 58.9686L174.997 64.2277C174.528 65.4958 172.747 65.4958 172.277 64.2277L170.347 58.9686C170.199 58.5708 169.89 58.2599 169.494 58.1108L164.473 56.2334C163.187 55.761 163.224 53.9209 164.522 53.4858L169.457 51.8322C169.877 51.6954 170.211 51.3598 170.36 50.937L172.314 45.4418C172.771 44.1612 174.565 44.1488 175.035 45.4293L176.939 50.6138C177.088 51.0116 177.397 51.3225 177.792 51.4717H177.78Z" fill="white"/>
<path d="M212.903 131.887L218.135 133.839C219.396 134.311 219.396 136.101 218.135 136.574L212.903 138.526C212.507 138.675 212.198 138.986 212.05 139.384L210.108 144.643C209.638 145.911 207.857 145.911 207.387 144.643L205.446 139.384C205.297 138.986 204.988 138.675 204.592 138.526L199.571 136.649C198.285 136.176 198.322 134.336 199.621 133.901L204.555 132.247C204.976 132.111 205.31 131.775 205.458 131.352L207.412 125.857C207.87 124.576 209.663 124.564 210.133 125.844L212.038 131.029C212.186 131.427 212.495 131.738 212.891 131.887H212.903Z" fill="white"/>
<path d="M31.9448 124.999L37.1761 126.951C38.4376 127.423 38.4376 129.214 37.1761 129.686L31.9448 131.638C31.549 131.787 31.2398 132.098 31.0914 132.496L29.1497 137.755C28.6798 139.023 26.8989 139.023 26.4289 137.755L24.4873 132.496C24.3389 132.098 24.0297 131.787 23.6339 131.638L18.6128 129.761C17.3266 129.288 17.3637 127.448 18.6623 127.013L23.5968 125.36C24.0173 125.223 24.3512 124.887 24.4996 124.464L26.4537 118.969C26.9113 117.689 28.7045 117.676 29.1745 118.957L31.079 124.141C31.2274 124.539 31.5366 124.85 31.9324 124.999H31.9448Z" fill="white"/>
</g>
<defs>
<clipPath id="clip0_13_2364">
<rect width="240" height="245" fill="white"/>
</clipPath>
</defs>
</svg>
